<svg xmlns="http://www.w3.org/2000/svg" version="1.1" xmlns:xlink="http://www.w3.org/1999/xlink" xmlns:svgjs="http://svgjs.dev/svgjs" width="1000" height="939" viewBox="0 0 1000 939"><g transform="matrix(1,0,0,1,0.41899782413986486,0.2871559633028369)"><svg viewBox="0 0 348 327" data-background-color="#ffffff" preserveAspectRatio="xMidYMid meet" height="939" width="1000" xmlns="http://www.w3.org/2000/svg" xmlns:xlink="http://www.w3.org/1999/xlink"><g id="tight-bounds" transform="matrix(1,0,0,1,-0.14566519586969662,-0.10000000000002274)"><svg viewBox="0 0 348.29064501992195 327.2" height="327.2" width="348.29064501992195"><g><svg viewBox="0 0 395.5199999999999 371.5693942701148" height="327.2" width="348.29064501992195"><g transform="matrix(1,0,0,1,0,240.4418055557526)"><svg viewBox="0 0 395.5199999999999 131.12758871436222" height="131.12758871436222" width="395.5199999999999"><g id="textblocktransform"><svg viewBox="0 0 395.5199999999999 131.12758871436222" height="131.12758871436222" width="395.5199999999999" id="textblock"><g><svg viewBox="0 0 395.5199999999999 92.80439311079837" height="92.80439311079837" width="395.5199999999999"><g transform="matrix(1,0,0,1,0,0)"><svg width="395.5199999999999" viewBox="-0.5289200000000029 -33.79872 190.78286284598212 44.76511000000001" height="92.80439311079837" data-palette-color="#aaaaaa"><path d="M19.034-16.226v0c0.907 4.414-0.001 7.684-2.722 9.808v0l9.948 13.239-3.35 0.689-9.347-12.352c-1.06 0.408-2.249 0.748-3.568 1.018v0l-3.546 0.729 2.757 13.42-3.125 0.641-6.61-32.178 6.671-1.37c3.735-0.767 6.582-0.743 8.539 0.073v0c2.229 0.91 3.68 3.004 4.353 6.283zM6.426-20.006l-3.311 0.68 2.815 13.703 3.311-0.68c2.73-0.561 4.67-1.534 5.821-2.921 1.151-1.387 1.446-3.445 0.886-6.174v0c-0.718-3.494-2.726-5.188-6.026-5.082v0c-1.044 0.051-2.21 0.209-3.496 0.474zM28.949-5.123l0.112 0.741c0.823 5.445 3.831 7.775 9.025 6.99v0c2.202-0.333 4.167-0.933 5.897-1.802v0c0.445-0.222 0.753-0.394 0.924-0.513v0l1.064 2.357c-0.983 0.809-2.878 1.568-5.684 2.275v0c-0.794 0.187-1.64 0.349-2.536 0.484v0c-2.597 0.393-4.861 0.07-6.79-0.966v0c-2.647-1.407-4.281-4.167-4.903-8.28-0.622-4.113-0.025-7.436 1.791-9.97 1.814-2.54 4.254-4.041 7.319-4.504 3.059-0.462 5.512 0.178 7.36 1.922v0c1.412 1.405 2.315 3.406 2.707 6.003v0c0.094 0.62 0.162 1.273 0.205 1.961v0l-16.562 2.503c0.004 0.249 0.027 0.515 0.071 0.799zM35.791-15.462v0c-1.918 0.29-3.472 1.118-4.662 2.484-1.183 1.365-1.9 3.001-2.151 4.907v0l13.507-2.041c-0.677-3.41-2.311-5.207-4.9-5.388v0c-0.583-0.067-1.181-0.054-1.794 0.038zM49.368-15.152l-1.068-2.155c3.23-2.016 6.117-3.197 8.662-3.544v0c2.023-0.201 3.611-0.101 4.763 0.301 1.159 0.407 2.126 1.035 2.9 1.882 0.774 0.848 1.243 2.097 1.407 3.75v0l1.661 16.717-3.035 0.302-0.176-1.771c-4.136 1.731-6.811 2.656-8.025 2.776v0c-0.06 0.006-0.106 0.011-0.139 0.014v0c-2.8 0.278-4.798-0.388-5.997-1.997v0c-0.433-0.587-0.703-1.173-0.808-1.758-0.105-0.586-0.178-1.081-0.217-1.486v0c-0.111-1.121 0.223-2.169 1.004-3.145 0.781-0.975 1.763-1.679 2.945-2.111v0c2.004-0.735 5.414-1.546 10.23-2.434v0l-0.376-3.781c-0.337-3.39-2.28-4.909-5.829-4.556v0c-2.488 0.247-5.122 1.246-7.902 2.996zM52.178-2.036v0c0.223 2.242 1.873 3.211 4.951 2.905v0c2.461-0.244 4.853-1.018 7.176-2.321v0l-0.663-6.677c-4.788 1.172-7.737 2.001-8.848 2.487v0c-1.902 0.819-2.774 2.021-2.616 3.606zM75.505 1.312l-3.044 0.205-2.343-34.882 3.028-0.434zM96.737-32.243l-0.14 2.826-13.653 0.435 0.393 12.334 12.664-0.404-0.14 2.826-12.434 0.397 0.384 12.044 14.822-0.473-0.14 2.826-17.78 0.567-1.047-32.834zM116.6-22.035l-0.796 2.606c-1.12-0.393-2.65-0.607-4.589-0.641-1.94-0.034-3.446 0.283-4.518 0.951-1.079 0.674-1.627 1.518-1.645 2.531-0.018 1.02 0.282 1.769 0.901 2.247 0.618 0.478 1.395 0.891 2.328 1.241 0.934 0.343 1.952 0.681 3.053 1.014 1.108 0.333 2.124 0.758 3.048 1.274v0c2.173 1.165 3.24 2.858 3.201 5.077-0.039 2.22-0.829 3.909-2.37 5.069-1.534 1.166-3.758 1.724-6.67 1.673v0c-1.466-0.026-2.877-0.201-4.232-0.525-1.355-0.317-2.387-0.749-3.097-1.295v0l1.073-2.471c0.709 0.639 2.154 1.118 4.336 1.436v0c0.692 0.106 1.394 0.165 2.107 0.178v0c1.626 0.029 2.995-0.284 4.107-0.938 1.105-0.647 1.67-1.661 1.694-3.041v0c0.017-0.94-0.284-1.679-0.901-2.216-0.617-0.544-1.393-1.005-2.326-1.381-0.927-0.376-1.944-0.714-3.053-1.014-1.101-0.306-2.118-0.694-3.05-1.164-0.932-0.47-1.705-1.077-2.318-1.821-0.614-0.744-0.909-1.743-0.887-2.996v0c0.036-2.033 0.848-3.646 2.435-4.838 1.588-1.192 3.695-1.765 6.322-1.719v0c0.653 0.012 1.322 0.063 2.007 0.155 0.692 0.086 1.317 0.167 1.876 0.243v0zM131.025-1.629l0.419 2.567c-0.59 0.528-1.621 0.752-3.091 0.671v0c-2.064-0.114-3.425-0.723-4.086-1.828v0c-1.155-1.219-1.678-2.813-1.569-4.783v0l0.795-14.428-2.616-0.145 0.569-2.692 2.197 0.121 0.256-4.643 3.061-0.112-0.271 4.923 5.441 0.3-0.149 2.716-5.442-0.3-0.837 15.176c-0.1 1.811 0.789 2.768 2.666 2.872v0c0.812 0.045 1.698-0.093 2.657-0.415zM136.804-16.455l-0.634-2.321c3.557-1.357 6.618-1.961 9.182-1.811v0c2.024 0.192 3.563 0.595 4.616 1.21 1.059 0.623 1.887 1.424 2.484 2.406 0.597 0.981 0.817 2.297 0.661 3.949v0l-1.585 16.725-3.037-0.287 0.168-1.772c-4.391 0.903-7.194 1.297-8.409 1.182v0c-0.06-0.006-0.106-0.01-0.139-0.014v0c-2.801-0.265-4.634-1.303-5.501-3.112v0c-0.313-0.659-0.464-1.286-0.455-1.882 0.01-0.595 0.033-1.095 0.072-1.5v0c0.106-1.122 0.636-2.086 1.59-2.892 0.954-0.807 2.053-1.309 3.297-1.506v0c2.108-0.336 5.61-0.476 10.507-0.421v0l0.358-3.783c0.321-3.391-1.293-5.255-4.844-5.592v0c-2.489-0.236-5.266 0.238-8.331 1.421zM137.04-3.043v0c-0.213 2.243 1.221 3.511 4.3 3.802v0c2.462 0.233 4.958-0.066 7.488-0.897v0l0.633-6.68c-4.924 0.23-7.977 0.476-9.161 0.739v0c-2.024 0.438-3.111 1.45-3.26 3.036zM165.776 2.26l0.213 2.592c-0.63 0.48-1.675 0.62-3.135 0.422v0c-2.048-0.278-3.357-0.994-3.927-2.149v0c-1.054-1.307-1.448-2.938-1.182-4.893v0l1.946-14.319-2.596-0.352 0.782-2.639 2.18 0.296 0.626-4.608 3.06 0.134-0.664 4.885 5.401 0.733-0.367 2.696-5.4-0.734-2.046 15.062c-0.244 1.797 0.565 2.822 2.428 3.074v0c0.806 0.11 1.7 0.043 2.681-0.2zM172.908-4.754l-0.131 0.739c-0.957 5.423 1.152 8.591 6.326 9.503v0c2.193 0.387 4.247 0.445 6.163 0.173v0c0.493-0.069 0.839-0.133 1.039-0.192v0l0.257 2.574c-1.19 0.453-3.228 0.568-6.112 0.343v0c-0.813-0.076-1.665-0.192-2.558-0.35v0c-2.587-0.456-4.629-1.483-6.128-3.081v0c-2.06-2.178-2.728-5.315-2.006-9.412 0.723-4.097 2.348-7.056 4.877-8.877 2.529-1.828 5.321-2.473 8.373-1.935 3.046 0.537 5.167 1.927 6.363 4.168v0c0.891 1.782 1.108 3.966 0.651 6.553v0c-0.109 0.617-0.252 1.259-0.431 1.925v0l-16.495-2.91c-0.076 0.237-0.138 0.497-0.188 0.779zM182.69-12.37v-0.001c-1.911-0.337-3.647-0.048-5.21 0.869-1.556 0.917-2.757 2.238-3.604 3.964v0l13.452 2.373c0.446-3.448-0.529-5.672-2.925-6.67v0c-0.531-0.249-1.102-0.428-1.713-0.536z" opacity="1" transform="matrix(1,0,0,1,0,0)" fill="#aaaaaa" class="wordmark-text-0" data-fill-palette-color="primary" id="text-0"></path></svg></g></svg></g><g transform="matrix(1,0,0,1,118.31980799999998,100.62013855466641)"><svg viewBox="0 0 158.88038399999996 30.507450159695807" height="30.507450159695807" width="158.88038399999996"><g transform="matrix(1,0,0,1,0,0)"><svg width="158.88038399999996" viewBox="2.4 -34.7 184.07999999999998 35.35" height="30.507450159695807" data-palette-color="#aaaaaa"><path d="M2.4-3.75L20.8-30.8 25.6-30.75 7.25-3.7 2.4-3.75ZM2.4-3.75L25.95-3.75 25.95 0 2.4 0 2.4-3.75ZM2.7-34.5L25.6-34.5 25.6-30.75 2.7-30.75 2.7-34.5ZM42.2-24.95L42.2-24.95Q47.7-24.95 50.17-22.95 52.65-20.95 52.65-17L52.65-17Q52.7-13.75 51.3-11.93 49.9-10.1 46.85-10.1L46.85-10.1 32.65-10.1 32.65-13.4 45.75-13.4Q47.4-13.4 47.9-14.53 48.4-15.65 48.4-17L48.4-17Q48.35-19.35 47-20.35 45.65-21.35 42.4-21.35L42.4-21.35Q39.75-21.35 38.22-20.58 36.7-19.8 36.07-17.88 35.45-15.95 35.45-12.5L35.45-12.5Q35.45-8.6 36.22-6.55 37-4.5 38.7-3.75 40.4-3 43.2-3L43.2-3Q45.15-3 47.47-3.18 49.8-3.35 51.65-3.6L51.65-3.6 52.1-0.75Q50.95-0.3 49.27 0 47.6 0.3 45.82 0.45 44.05 0.6 42.65 0.6L42.65 0.6Q38.45 0.6 35.9-0.68 33.35-1.95 32.17-4.78 31-7.6 31-12.25L31-12.25Q31-17.05 32.17-19.83 33.35-22.6 35.82-23.78 38.3-24.95 42.2-24.95ZM59.05-24.35L62.35-24.35 62.9-19.7 63.3-18.95 63.3 0 59.05 0 59.05-24.35ZM73.2-24.95L74.3-24.95 73.8-20.95 72.4-20.95Q70.25-20.95 68.09-20.08 65.95-19.2 62.85-17.6L62.85-17.6 62.5-20.25Q65.2-22.45 67.92-23.7 70.65-24.95 73.2-24.95L73.2-24.95ZM88.74-24.95L88.74-24.95Q92.94-24.95 95.47-23.7 97.99-22.45 99.09-19.63 100.19-16.8 100.19-12.15L100.19-12.15Q100.19-7.5 99.09-4.67 97.99-1.85 95.47-0.6 92.94 0.65 88.74 0.65L88.74 0.65Q84.59 0.65 82.07-0.6 79.54-1.85 78.42-4.67 77.29-7.5 77.29-12.15L77.29-12.15Q77.29-16.8 78.42-19.63 79.54-22.45 82.07-23.7 84.59-24.95 88.74-24.95ZM88.74-21.35L88.74-21.35Q86.09-21.35 84.57-20.53 83.04-19.7 82.39-17.7 81.74-15.7 81.74-12.15L81.74-12.15Q81.74-8.6 82.39-6.6 83.04-4.6 84.57-3.78 86.09-2.95 88.74-2.95L88.74-2.95Q91.39-2.95 92.94-3.78 94.49-4.6 95.14-6.6 95.79-8.6 95.79-12.15L95.79-12.15Q95.79-15.7 95.14-17.7 94.49-19.7 92.94-20.53 91.39-21.35 88.74-21.35ZM107.04-24.35L111.24-24.35 111.24 0 107.04 0 107.04-24.35ZM108.14-34.7L110.14-34.7Q111.44-34.7 111.44-33.4L111.44-33.4 111.44-30.55Q111.44-29.25 110.14-29.25L110.14-29.25 108.14-29.25Q106.84-29.25 106.84-30.55L106.84-30.55 106.84-33.4Q106.84-34.7 108.14-34.7L108.14-34.7ZM129.54-24.95L129.54-24.95Q133.74-24.95 136.26-23.7 138.79-22.45 139.89-19.63 140.99-16.8 140.99-12.15L140.99-12.15Q140.99-7.5 139.89-4.67 138.79-1.85 136.26-0.6 133.74 0.65 129.54 0.65L129.54 0.65Q125.39 0.65 122.86-0.6 120.34-1.85 119.21-4.67 118.09-7.5 118.09-12.15L118.09-12.15Q118.09-16.8 119.21-19.63 120.34-22.45 122.86-23.7 125.39-24.95 129.54-24.95ZM129.54-21.35L129.54-21.35Q126.89-21.35 125.36-20.53 123.84-19.7 123.19-17.7 122.54-15.7 122.54-12.15L122.54-12.15Q122.54-8.6 123.19-6.6 123.84-4.6 125.36-3.78 126.89-2.95 129.54-2.95L129.54-2.95Q132.19-2.95 133.74-3.78 135.29-4.6 135.94-6.6 136.59-8.6 136.59-12.15L136.59-12.15Q136.59-15.7 135.94-17.7 135.29-19.7 133.74-20.53 132.19-21.35 129.54-21.35ZM149.44-31.55L153.69-31.55 153.69-6.7Q153.69-4.95 154.44-4.2 155.19-3.45 156.99-3.45L156.99-3.45 160.69-3.45 161.19-0.2Q160.38 0 159.34 0.15 158.28 0.3 157.28 0.38 156.28 0.45 155.69 0.45L155.69 0.45Q152.63 0.45 151.03-1.25 149.44-2.95 149.44-6.15L149.44-6.15 149.44-31.55ZM149.84-24.35L161.44-24.35 161.44-21 145.03-21 145.03-24.1 149.84-24.35ZM178.13-24.95L178.13-24.95Q180.83-24.95 182.71-24.23 184.58-23.5 185.53-21.8 186.48-20.1 186.48-17.15L186.48-17.15 186.48 0 183.13 0 182.48-5.3 182.18-5.85 182.18-17.15Q182.18-19.4 181.16-20.38 180.13-21.35 177.23-21.35L177.23-21.35Q175.33-21.35 172.46-21.15 169.58-20.95 166.78-20.7L166.78-20.7 166.38-23.85Q168.08-24.15 170.11-24.4 172.13-24.65 174.23-24.8 176.33-24.95 178.13-24.95ZM172.03-15L184.48-15 184.43-11.8 172.78-11.75Q171.03-11.7 170.33-10.83 169.63-9.95 169.63-8.4L169.63-8.4 169.63-6.85Q169.63-4.95 170.53-4.08 171.43-3.2 173.43-3.2L173.43-3.2Q174.83-3.2 176.61-3.73 178.38-4.25 180.18-5.35 181.98-6.45 183.48-8.15L183.48-8.15 183.48-5Q182.93-4.3 181.91-3.38 180.88-2.45 179.46-1.58 178.03-0.7 176.31-0.13 174.58 0.45 172.58 0.45L172.58 0.45Q170.43 0.45 168.78-0.33 167.13-1.1 166.21-2.63 165.28-4.15 165.28-6.35L165.28-6.35 165.28-9Q165.28-11.85 167.06-13.43 168.83-15 172.03-15L172.03-15Z" opacity="1" transform="matrix(1,0,0,1,0,0)" fill="#aaaaaa" class="slogan-text-1" data-fill-palette-color="secondary" id="text-1"></path></svg></g></svg></g></svg></g></svg></g><g transform="matrix(1,0,0,1,91.67778073008094,0)"><svg viewBox="0 0 212.16443853983805 212.16443853983805" height="212.16443853983805" width="212.16443853983805"><g><svg xmlns="http://www.w3.org/2000/svg" xmlns:xlink="http://www.w3.org/1999/xlink" version="1.1" x="0" y="0" viewBox="2 2 48 48" enable-background="new 0 0 52 52" xml:space="preserve" height="212.16443853983805" width="212.16443853983805" class="icon-icon-0" data-fill-palette-color="accent" id="icon-0"><g fill="#ee9722" data-fill-palette-color="accent"><path d="M46.949 25C46.438 14.22 37.78 5.562 27 5.051V2h-2v3.051C14.22 5.562 5.562 14.22 5.051 25H2v2h3.051C5.562 37.78 14.22 46.438 25 46.949V50h2v-3.051C37.78 46.438 46.438 37.78 46.949 27H50v-2H46.949zM44.949 27C44.442 36.677 36.677 44.442 27 44.949V42h-2v2.949C15.323 44.442 7.558 36.677 7.051 27H10v-2H7.051C7.558 15.323 15.323 7.558 25 7.051V10h2V7.051C36.677 7.558 44.442 15.323 44.949 25H42v2H44.949z" fill="#ee9722" data-fill-palette-color="accent"></path><polygon points="13.3200684,25.5727539 14.5900269,27.112793 17.000061,25.1228027 17.000061,37.0026855 22.9990234,37.0026855    22.9990234,29 29.9990234,29 29.9990234,37.0026855 36.000061,37.0026855 36.000061,25.1625977 38.3600464,27.112793    39.6400146,25.5727539 26.4800415,14.7026367  " fill="#ee9722" data-fill-palette-color="accent"></polygon></g></svg></g></svg></g><g></g></svg></g><defs></defs></svg><rect width="348.29064501992195" height="327.2" fill="none" stroke="none" visibility="hidden"></rect></g></svg></g></svg>