<?xml version="1.0" encoding="UTF-8"?>
<svg version="1.1" viewBox="0 0 1000 939" xmlns="http://www.w3.org/2000/svg">
<g transform="translate(.419 .28716)">
<svg width="1e3" height="939" data-background-color="#ffffff" viewBox="0 0 348 327" xmlns="http://www.w3.org/2000/svg" xmlns:xlink="http://www.w3.org/1999/xlink">
<g transform="translate(-.14567 -.1)">
<svg width="348.29" height="327.2" viewBox="0 0 348.29064501992195 327.2">
<svg width="348.29" height="327.2" viewBox="0 0 395.5199999999999 371.5693942701148">
<g transform="translate(0 240.44)">
<svg width="395.52" height="131.13" viewBox="0 0 395.5199999999999 131.12758871436222">
<svg width="395.52" height="131.13" viewBox="0 0 395.5199999999999 131.12758871436222">
<svg width="395.52" height="92.804" viewBox="0 0 395.5199999999999 92.80439311079837">
<g>
<svg width="395.52" height="92.804" data-palette-color="#aaaaaa" viewBox="-0.5289200000000029 -33.79872 190.78286284598212 44.76511000000001">
<path class="wordmark-text-0" d="m19.034-16.226c0.907 4.414-1e-3 7.684-2.722 9.808l9.948 13.239-3.35 0.689-9.347-12.352c-1.06 0.408-2.249 0.748-3.568 1.018l-3.546 0.729 2.757 13.42-3.125 0.641-6.61-32.178 6.671-1.37c3.735-0.767 6.582-0.743 8.539 0.073 2.229 0.91 3.68 3.004 4.353 6.283zm-12.608-3.78-3.311 0.68 2.815 13.703 3.311-0.68c2.73-0.561 4.67-1.534 5.821-2.921s1.446-3.445 0.886-6.174c-0.718-3.494-2.726-5.188-6.026-5.082-1.044 0.051-2.21 0.209-3.496 0.474zm22.523 14.883 0.112 0.741c0.823 5.445 3.831 7.775 9.025 6.99 2.202-0.333 4.167-0.933 5.897-1.802 0.445-0.222 0.753-0.394 0.924-0.513l1.064 2.357c-0.983 0.809-2.878 1.568-5.684 2.275-0.794 0.187-1.64 0.349-2.536 0.484-2.597 0.393-4.861 0.07-6.79-0.966-2.647-1.407-4.281-4.167-4.903-8.28s-0.025-7.436 1.791-9.97c1.814-2.54 4.254-4.041 7.319-4.504 3.059-0.462 5.512 0.178 7.36 1.922 1.412 1.405 2.315 3.406 2.707 6.003 0.094 0.62 0.162 1.273 0.205 1.961l-16.562 2.503c4e-3 0.249 0.027 0.515 0.071 0.799zm6.842-10.339c-1.918 0.29-3.472 1.118-4.662 2.484-1.183 1.365-1.9 3.001-2.151 4.907l13.507-2.041c-0.677-3.41-2.311-5.207-4.9-5.388-0.583-0.067-1.181-0.054-1.794 0.038zm13.577 0.31-1.068-2.155c3.23-2.016 6.117-3.197 8.662-3.544 2.023-0.201 3.611-0.101 4.763 0.301 1.159 0.407 2.126 1.035 2.9 1.882 0.774 0.848 1.243 2.097 1.407 3.75l1.661 16.717-3.035 0.302-0.176-1.771c-4.136 1.731-6.811 2.656-8.025 2.776-0.06 6e-3 -0.106 0.011-0.139 0.014-2.8 0.278-4.798-0.388-5.997-1.997-0.433-0.587-0.703-1.173-0.808-1.758-0.105-0.586-0.178-1.081-0.217-1.486-0.111-1.121 0.223-2.169 1.004-3.145 0.781-0.975 1.763-1.679 2.945-2.111 2.004-0.735 5.414-1.546 10.23-2.434l-0.376-3.781c-0.337-3.39-2.28-4.909-5.829-4.556-2.488 0.247-5.122 1.246-7.902 2.996zm2.81 13.116c0.223 2.242 1.873 3.211 4.951 2.905 2.461-0.244 4.853-1.018 7.176-2.321l-0.663-6.677c-4.788 1.172-7.737 2.001-8.848 2.487-1.902 0.819-2.774 2.021-2.616 3.606zm23.327 3.348-3.044 0.205-2.343-34.882 3.028-0.434zm21.232-33.555-0.14 2.826-13.653 0.435 0.393 12.334 12.664-0.404-0.14 2.826-12.434 0.397 0.384 12.044 14.822-0.473-0.14 2.826-17.78 0.567-1.047-32.834zm19.863 10.208-0.796 2.606c-1.12-0.393-2.65-0.607-4.589-0.641-1.94-0.034-3.446 0.283-4.518 0.951-1.079 0.674-1.627 1.518-1.645 2.531-0.018 1.02 0.282 1.769 0.901 2.247 0.618 0.478 1.395 0.891 2.328 1.241 0.934 0.343 1.952 0.681 3.053 1.014 1.108 0.333 2.124 0.758 3.048 1.274 2.173 1.165 3.24 2.858 3.201 5.077-0.039 2.22-0.829 3.909-2.37 5.069-1.534 1.166-3.758 1.724-6.67 1.673-1.466-0.026-2.877-0.201-4.232-0.525-1.355-0.317-2.387-0.749-3.097-1.295l1.073-2.471c0.709 0.639 2.154 1.118 4.336 1.436 0.692 0.106 1.394 0.165 2.107 0.178 1.626 0.029 2.995-0.284 4.107-0.938 1.105-0.647 1.67-1.661 1.694-3.041 0.017-0.94-0.284-1.679-0.901-2.216-0.617-0.544-1.393-1.005-2.326-1.381-0.927-0.376-1.944-0.714-3.053-1.014-1.101-0.306-2.118-0.694-3.05-1.164s-1.705-1.077-2.318-1.821c-0.614-0.744-0.909-1.743-0.887-2.996 0.036-2.033 0.848-3.646 2.435-4.838 1.588-1.192 3.695-1.765 6.322-1.719 0.653 0.012 1.322 0.063 2.007 0.155 0.692 0.086 1.317 0.167 1.876 0.243zm14.425 20.406 0.419 2.567c-0.59 0.528-1.621 0.752-3.091 0.671-2.064-0.114-3.425-0.723-4.086-1.828-1.155-1.219-1.678-2.813-1.569-4.783l0.795-14.428-2.616-0.145 0.569-2.692 2.197 0.121 0.256-4.643 3.061-0.112-0.271 4.923 5.441 0.3-0.149 2.716-5.442-0.3-0.837 15.176c-0.1 1.811 0.789 2.768 2.666 2.872 0.812 0.045 1.698-0.093 2.657-0.415zm5.779-14.826-0.634-2.321c3.557-1.357 6.618-1.961 9.182-1.811 2.024 0.192 3.563 0.595 4.616 1.21 1.059 0.623 1.887 1.424 2.484 2.406 0.597 0.981 0.817 2.297 0.661 3.949l-1.585 16.725-3.037-0.287 0.168-1.772c-4.391 0.903-7.194 1.297-8.409 1.182-0.06-6e-3 -0.106-0.01-0.139-0.014-2.801-0.265-4.634-1.303-5.501-3.112-0.313-0.659-0.464-1.286-0.455-1.882 0.01-0.595 0.033-1.095 0.072-1.5 0.106-1.122 0.636-2.086 1.59-2.892 0.954-0.807 2.053-1.309 3.297-1.506 2.108-0.336 5.61-0.476 10.507-0.421l0.358-3.783c0.321-3.391-1.293-5.255-4.844-5.592-2.489-0.236-5.266 0.238-8.331 1.421zm0.236 13.412c-0.213 2.243 1.221 3.511 4.3 3.802 2.462 0.233 4.958-0.066 7.488-0.897l0.633-6.68c-4.924 0.23-7.977 0.476-9.161 0.739-2.024 0.438-3.111 1.45-3.26 3.036zm28.736 5.303 0.213 2.592c-0.63 0.48-1.675 0.62-3.135 0.422-2.048-0.278-3.357-0.994-3.927-2.149-1.054-1.307-1.448-2.938-1.182-4.893l1.946-14.319-2.596-0.352 0.782-2.639 2.18 0.296 0.626-4.608 3.06 0.134-0.664 4.885 5.401 0.733-0.367 2.696-5.4-0.734-2.046 15.062c-0.244 1.797 0.565 2.822 2.428 3.074 0.806 0.11 1.7 0.043 2.681-0.2zm7.132-7.014-0.131 0.739c-0.957 5.423 1.152 8.591 6.326 9.503 2.193 0.387 4.247 0.445 6.163 0.173 0.493-0.069 0.839-0.133 1.039-0.192l0.257 2.574c-1.19 0.453-3.228 0.568-6.112 0.343-0.813-0.076-1.665-0.192-2.558-0.35-2.587-0.456-4.629-1.483-6.128-3.081-2.06-2.178-2.728-5.315-2.006-9.412 0.723-4.097 2.348-7.056 4.877-8.877 2.529-1.828 5.321-2.473 8.373-1.935 3.046 0.537 5.167 1.927 6.363 4.168 0.891 1.782 1.108 3.966 0.651 6.553-0.109 0.617-0.252 1.259-0.431 1.925l-16.495-2.91c-0.076 0.237-0.138 0.497-0.188 0.779zm9.782-7.616v-1e-3c-1.911-0.337-3.647-0.048-5.21 0.869-1.556 0.917-2.757 2.238-3.604 3.964l13.452 2.373c0.446-3.448-0.529-5.672-2.925-6.67-0.531-0.249-1.102-0.428-1.713-0.536z" fill="#aaa" data-fill-palette-color="primary"/>
</svg>
</g>
</svg>
<g transform="translate(118.32 100.62)">
<svg width="158.88" height="30.507" viewBox="0 0 158.88038399999996 30.507450159695807">
<g>
<svg width="158.88" height="30.507" data-palette-color="#aaaaaa" viewBox="2.4 -34.7 184.07999999999998 35.35">
<path class="slogan-text-1" d="m2.4-3.75 18.4-27.05 4.8 0.05-18.35 27.05-4.85-0.05zm0 0h23.55v3.75h-23.55v-3.75zm0.3-30.75h22.9v3.75h-22.9v-3.75zm39.5 9.55q5.5 0 7.97 2 2.48 2 2.48 5.95 0.05 3.25-1.35 5.07-1.4 1.83-4.45 1.83h-14.2v-3.3h13.1q1.65 0 2.15-1.13 0.5-1.12 0.5-2.47-0.05-2.35-1.4-3.35t-4.6-1q-2.65 0-4.18 0.77-1.52 0.78-2.15 2.7-0.62 1.93-0.62 5.38 0 3.9 0.77 5.95 0.78 2.05 2.48 2.8t4.5 0.75q1.95 0 4.27-0.18 2.33-0.17 4.18-0.42l0.45 2.85q-1.15 0.45-2.83 0.75-1.67 0.3-3.45 0.45-1.77 0.15-3.17 0.15-4.2 0-6.75-1.28-2.55-1.27-3.73-4.1-1.17-2.82-1.17-7.47 0-4.8 1.17-7.58 1.18-2.77 3.65-3.95 2.48-1.17 6.38-1.17zm16.85 0.6h3.3l0.55 4.65 0.4 0.75v18.95h-4.25v-24.35zm14.15-0.6h1.1l-0.5 4h-1.4q-2.15 0-4.31 0.87-2.14 0.88-5.24 2.48l-0.35-2.65q2.7-2.2 5.42-3.45 2.73-1.25 5.28-1.25zm15.54 0q4.2 0 6.73 1.25 2.52 1.25 3.62 4.07 1.1 2.83 1.1 7.48t-1.1 7.48q-1.1 2.82-3.62 4.07-2.53 1.25-6.73 1.25-4.15 0-6.67-1.25-2.53-1.25-3.65-4.07-1.13-2.83-1.13-7.48t1.13-7.48q1.12-2.82 3.65-4.07 2.52-1.25 6.67-1.25zm0 3.6q-2.65 0-4.17 0.82-1.53 0.83-2.18 2.83t-0.65 5.55 0.65 5.55 2.18 2.82q1.52 0.83 4.17 0.83t4.2-0.83q1.55-0.82 2.2-2.82t0.65-5.55-0.65-5.55-2.2-2.83q-1.55-0.82-4.2-0.82zm18.3-3h4.2v24.35h-4.2v-24.35zm1.1-10.35h2q1.3 0 1.3 1.3v2.85q0 1.3-1.3 1.3h-2q-1.3 0-1.3-1.3v-2.85q0-1.3 1.3-1.3zm21.4 9.75q4.2 0 6.72 1.25 2.53 1.25 3.63 4.07 1.1 2.83 1.1 7.48t-1.1 7.48q-1.1 2.82-3.63 4.07-2.52 1.25-6.72 1.25-4.15 0-6.68-1.25-2.52-1.25-3.65-4.07-1.12-2.83-1.12-7.48t1.12-7.48q1.13-2.82 3.65-4.07 2.53-1.25 6.68-1.25zm0 3.6q-2.65 0-4.18 0.82-1.52 0.83-2.17 2.83t-0.65 5.55 0.65 5.55 2.17 2.82q1.53 0.83 4.18 0.83t4.2-0.83q1.55-0.82 2.2-2.82t0.65-5.55-0.65-5.55-2.2-2.83q-1.55-0.82-4.2-0.82zm19.9-10.2h4.25v24.85q0 1.75 0.75 2.5t2.55 0.75h3.7l0.5 3.25q-0.81 0.2-1.85 0.35-1.06 0.15-2.06 0.23-1 0.07-1.59 0.07-3.06 0-4.66-1.7-1.59-1.7-1.59-4.9v-25.4zm0.4 7.2h11.6v3.35h-16.41v-3.1l4.81-0.25zm28.29-0.6q2.7 0 4.58 0.72 1.87 0.73 2.82 2.43t0.95 4.65v17.15h-3.35l-0.65-5.3-0.3-0.55v-11.3q0-2.25-1.02-3.23-1.03-0.97-3.93-0.97-1.9 0-4.77 0.2-2.88 0.2-5.68 0.45l-0.4-3.15q1.7-0.3 3.73-0.55 2.02-0.25 4.12-0.4t3.9-0.15zm-6.1 9.95h12.45l-0.05 3.2-11.65 0.05q-1.75 0.05-2.45 0.92-0.7 0.88-0.7 2.43v1.55q0 1.9 0.9 2.77 0.9 0.88 2.9 0.88 1.4 0 3.18-0.53 1.77-0.52 3.57-1.62t3.3-2.8v3.15q-0.55 0.7-1.57 1.62-1.03 0.93-2.45 1.8-1.43 0.88-3.15 1.45-1.73 0.58-3.73 0.58-2.15 0-3.8-0.78-1.65-0.77-2.57-2.3-0.93-1.52-0.93-3.72v-2.65q0-2.85 1.78-4.43 1.77-1.57 4.97-1.57z" fill="#aaa" data-fill-palette-color="secondary"/>
</svg>
</g>
</svg>
</g>
</svg>
</svg>
</g>
<g transform="translate(91.678)">
<svg width="212.16" height="212.16" viewBox="0 0 212.16443853983805 212.16443853983805">
<svg class="icon-icon-0" width="212.16" height="212.16" enable-background="new 0 0 52 52" data-fill-palette-color="accent" version="1.1" viewBox="2 2 48 48" xml:space="preserve" xmlns="http://www.w3.org/2000/svg" xmlns:xlink="http://www.w3.org/1999/xlink"><g fill="#ee9722" data-fill-palette-color="accent"><path d="M46.949 25C46.438 14.22 37.78 5.562 27 5.051V2h-2v3.051C14.22 5.562 5.562 14.22 5.051 25H2v2h3.051C5.562 37.78 14.22 46.438 25 46.949V50h2v-3.051C37.78 46.438 46.438 37.78 46.949 27H50v-2H46.949zM44.949 27C44.442 36.677 36.677 44.442 27 44.949V42h-2v2.949C15.323 44.442 7.558 36.677 7.051 27H10v-2H7.051C7.558 15.323 15.323 7.558 25 7.051V10h2V7.051C36.677 7.558 44.442 15.323 44.949 25H42v2H44.949z" data-fill-palette-color="accent"/><polygon points="13.32 25.573 14.59 27.113 17 25.123 17 37.003 22.999 37.003 22.999 29 29.999 29 29.999 37.003 36 37.003 36 25.163 38.36 27.113 39.64 25.573 26.48 14.703" data-fill-palette-color="accent"/></g></svg>
</svg>
</g>
</svg>
</svg>
<rect width="348.29" height="327.2" fill="none" visibility="hidden"/>
</g>
</svg>
</g>
</svg>
